<svg id="svg" xmlns="http://www.w3.org/2000/svg" viewBox="0 0 50 50" width="50" height="50"><g transform="translate(25 -25)"><path d="M0.00,41.93 C-2.19,43.89 -2.53,42.33 -4.80,41.69  C-7.07,41.06 -11.28,41.35 -12.75,42.64  C-14.21,43.93 -12.92,46.23 -14.20,50.00  C-15.49,53.77 -19.33,59.02 -17.87,60.32  C-16.42,61.62 -9.67,58.98 -5.83,60.10  C-2.00,61.21 -1.08,66.09 0.00,66.25  C1.08,66.40 2.32,61.84 5.99,60.38  C9.66,58.92 15.77,60.55 15.62,59.02  C15.47,57.49 9.10,52.78 7.87,50.00  C6.64,47.22 10.54,46.37 11.80,43.19  C13.05,40.01 11.67,34.50 8.96,34.49  C6.25,34.48 2.19,39.97 0.00,41.93   Z" style="stroke-width: 3; stroke: rgb(216, 216, 216); fill: none; transition: all 0.2s cubic-bezier(0.62, 0.15, 0.39, 0.8) 0s, fill 0s ease 0s, stroke 0s ease 0s; stroke-linecap: round;"></path></g></svg>