<svg id="svg" xmlns="http://www.w3.org/2000/svg" viewBox="0 0 50 50" width="50" height="50"><g transform="translate(25 -25)"><path d="M0.00,40.99 C-3.37,40.88 -6.28,33.49 -9.51,31.88  C-12.74,30.28 -16.29,34.46 -16.52,38.60  C-16.74,42.74 -13.63,46.83 -11.38,48.62  C-9.14,50.40 -7.77,49.88 -9.11,53.46  C-10.46,57.03 -14.53,64.70 -13.52,65.26  C-12.51,65.82 -6.41,59.27 -2.46,59.96  C1.50,60.65 3.32,68.58 4.69,69.04  C6.06,69.49 7.00,62.49 8.02,59.05  C9.04,55.62 10.18,55.79 11.53,54.37  C12.87,52.96 14.44,49.93 13.91,48.31  C13.38,46.70 10.73,46.53 9.88,43.18  C9.04,39.83 10.02,33.30 8.60,33.61  C7.19,33.93 3.37,41.10 0.00,40.99   Z" style="stroke-width: 3; stroke: rgb(216, 216, 216); fill: none; transition: all 0.2s cubic-bezier(0.62, 0.15, 0.39, 0.8) 0s, fill 0s ease 0s, stroke 0s ease 0s; stroke-linecap: round;"></path></g></svg>