<svg id="svg" xmlns="http://www.w3.org/2000/svg" viewBox="0 0 50 50" width="50" height="50"><g transform="translate(25 -25)"><path d="M0.00,32.50 C-2.82,32.50 -5.64,33.20 -8.13,34.50  C-10.63,35.81 -12.80,37.74 -14.40,40.06  C-16.00,42.38 -17.03,45.09 -17.37,47.89  C-17.71,50.69 -17.36,53.57 -16.36,56.20  C-15.36,58.84 -13.72,61.23 -11.61,63.10  C-9.50,64.97 -6.93,66.32 -4.19,66.99  C-1.45,67.67 1.45,67.67 4.19,66.99  C6.92,66.32 9.50,64.97 11.60,63.10  C13.71,61.23 15.36,58.84 16.36,56.21  C17.36,53.58 17.71,50.70 17.37,47.89  C17.04,45.09 16.01,42.38 14.40,40.06  C12.80,37.75 10.63,35.82 8.14,34.51  C5.64,33.19 2.82,32.50 0.00,32.50   Z" style="stroke-width: 3; stroke: rgb(216, 216, 216); fill: none; transition: all 0.2s cubic-bezier(0.62, 0.15, 0.39, 0.8) 0s, fill 0s ease 0s, stroke 0s ease 0s; stroke-linecap: round;"></path></g></svg>