<?xml version="1.0" encoding="UTF-8" standalone="no"?>
<!-- Created with Inkscape (http://www.inkscape.org/) -->

<svg
   width="200mm"
   height="50mm"
   viewBox="0 0 200 50"
   version="1.1"
   id="svg1"
   xml:space="preserve"
   xmlns="http://www.w3.org/2000/svg"
   xmlns:svg="http://www.w3.org/2000/svg"><defs
     id="defs1" /><g
     id="layer1"><g
       style="fill:currentColor;stroke:currentColor;stroke-width:0"
       id="g4"
       transform="matrix(3.5047171e21,0,0,3.5047171e21,-4.2056579e22,-4.2056632e22)"><path
         d="M 17,7 C 14.906,7 13.389,8.567 11.999,10.346 10.609,8.567 9.093,7 7,7 4.243,7 2,9.243 2,12 A 4.98,4.98 0 0 0 3.459,15.534 4.956,4.956 0 0 0 6.99,17 H 7.002 C 9.091,16.995 10.607,15.428 11.998,13.649 13.389,15.431 14.906,17 17,17 19.757,17 22,14.757 22,12 22,9.243 19.757,7 17,7 Z M 6.998,15 6.99,16 V 15 C 6.191,15 5.44,14.688 4.876,14.122 A 3.004,3.004 0 0 1 7,9 c 1.33,0 2.56,1.438 3.746,2.998 C 9.558,13.557 8.328,14.997 6.998,15 Z M 17,15 C 15.67,15 14.439,13.56 13.251,11.998 14.438,10.438 15.668,9 17,9 c 1.654,0 3,1.346 3,3 0,1.654 -1.346,3 -3,3 z"
         id="path1-2" /></g><g
       id="g8"
       transform="matrix(0.84630213,0,0,0.80525441,-5.1580933,6.8683522)"
       style="fill:#d4d4d8;fill-opacity:0.995851;stroke:#000000;stroke-width:0;stroke-dasharray:none;stroke-opacity:1"><path
         d="m 30.707142,28.359835 q 0,2.760168 -1.343445,4.738696 -1.343445,1.954102 -3.981482,2.980005 -2.613611,1.001477 -6.375257,1.001477 -3.590662,0 -6.15542,-1.099182 -2.564758,-1.099182 -3.7860718,-2.735742 -1.2213135,-1.660987 -1.2213135,-3.321973 0,-1.099182 0.7816407,-1.880823 0.7816406,-0.78164 1.9785276,-0.78164 1.05033,0 1.612134,0.512951 0.561804,0.512952 1.074756,1.44115 1.025903,1.783118 2.442627,2.662464 1.44115,0.879345 3.908203,0.879345 2.002954,0 3.27312,-0.879345 1.294593,-0.903772 1.294593,-2.051807 0,-1.758691 -1.343445,-2.564758 Q 21.54729,26.454586 18.494007,25.721798 15.049902,24.866878 12.875964,23.93868 10.726453,22.986055 9.4318603,21.4472 8.1372679,19.908345 8.1372679,17.661128 q 0,-2.002954 1.1968873,-3.786071 1.1968868,-1.783118 3.5173828,-2.833448 2.344922,-1.0747557 5.642469,-1.0747557 2.589184,0 4.640991,0.5373777 2.076233,0.537378 3.444104,1.44115 1.392297,0.903772 2.100659,2.002954 0.732788,1.099183 0.732788,2.149512 0,1.148035 -0.78164,1.880823 -0.757215,0.732788 -2.173938,0.732788 -1.025904,0 -1.758692,-0.58623 -0.708362,-0.586231 -1.63656,-1.758692 -0.757214,-0.977051 -1.783118,-1.563281 -1.025903,-0.586231 -2.784594,-0.586231 -1.807544,0 -3.004432,0.781641 -1.196887,0.757214 -1.196887,1.905249 0,1.05033 0.879346,1.734265 0.879346,0.65951 2.369348,1.099182 1.490002,0.439673 4.103613,1.074756 3.102137,0.757215 5.056238,1.807544 1.978528,1.05033 2.980005,2.49148 1.025904,1.416724 1.025904,3.248694 z M 41.063879,14.119319 46.462085,29.263607 52.275538,13.45981 q 0.683935,-1.905249 1.343444,-2.68689 0.65951,-0.8060667 2.002955,-0.8060667 1.270166,0 2.149511,0.8549197 0.903772,0.854919 0.903772,1.978528 0,0.439673 -0.170984,1.025903 -0.146557,0.58623 -0.366394,1.099182 -0.19541,0.512952 -0.464099,1.172461 L 51.27406,31.974923 q -0.268689,0.683935 -0.708361,1.734265 -0.415247,1.05033 -0.952625,1.807544 -0.512952,0.732788 -1.294592,1.148035 -0.757215,0.415246 -1.856397,0.415246 -1.416723,0 -2.271643,-0.635083 -0.830493,-0.659509 -1.24574,-1.416723 -0.39082,-0.781641 -1.343445,-3.053284 l -6.35083,-15.706092 q -0.219836,-0.58623 -0.464099,-1.172461 -0.219836,-0.58623 -0.39082,-1.196887 -0.146558,-0.610657 -0.146558,-1.05033 0,-0.683935 0.415247,-1.343445 0.415246,-0.683935 1.148034,-1.099182 0.732788,-0.4396727 1.587708,-0.4396727 1.660986,0 2.271643,0.9526247 0.635083,0.952624 1.392297,3.199841 z m 46.922865,0.732788 V 34.22214 q 0,3.321972 -0.708362,5.715747 -0.708362,2.393774 -2.271643,3.957056 -1.563281,1.563281 -4.103614,2.320495 -2.515905,0.757215 -6.277551,0.757215 -3.444104,0 -6.15542,-0.977051 -2.711316,-0.952625 -4.176892,-2.49148 -1.465577,-1.514428 -1.465577,-3.126562 0,-1.221314 0.830494,-2.002954 0.830493,-0.757215 2.002954,-0.757215 1.465576,0 2.564758,1.294593 0.537378,0.659509 1.099182,1.319018 0.586231,0.683936 1.270166,1.148035 0.708362,0.488525 1.685413,0.708362 0.977051,0.244262 2.247217,0.244262 2.589185,0 4.005908,-0.732788 1.44115,-0.708362 2.002954,-2.002954 0.586231,-1.294592 0.683936,-2.784595 0.0977,-1.465576 0.146558,-4.738696 -1.538855,2.149512 -3.566236,3.27312 -2.002954,1.123609 -4.787549,1.123609 -3.346399,0 -5.862305,-1.709839 -2.491479,-1.709839 -3.834924,-4.787549 -1.343445,-3.07771 -1.343445,-7.108045 0,-3.004431 0.806067,-5.422632 0.830493,-2.418201 2.344922,-4.079187 1.514429,-1.660987 3.492956,-2.49148 1.978528,-0.854919 4.347877,-0.854919 2.833447,0 4.90968,1.099182 2.076233,1.074756 3.859351,3.395252 v -0.903772 q 0,-1.734266 0.854919,-2.68689 0.85492,-0.9526247 2.198364,-0.9526247 1.929676,0 2.564759,1.2701657 0.635083,1.24574 0.635083,3.615088 z m -19.32118,8.45149 q 0,4.054761 1.758691,6.130994 1.783118,2.076233 4.592139,2.076233 1.660987,0 3.126563,-0.879346 1.490002,-0.903772 2.418201,-2.68689 0.928198,-1.807544 0.928198,-4.372302 0,-4.079187 -1.807544,-6.35083 -1.783118,-2.271644 -4.71427,-2.271644 -2.857874,0 -4.592139,2.173938 -1.709839,2.173939 -1.709839,6.179847 z m 43.429906,1.856396 H 99.05184 q 0.02443,2.271644 0.903772,4.005909 0.903768,1.734265 2.369348,2.613611 1.49,0.879345 3.27312,0.879345 1.19689,0 2.17394,-0.268689 1.00148,-0.293115 1.92967,-0.879345 0.9282,-0.610657 1.70984,-1.294593 0.78164,-0.683935 2.02738,-1.856396 0.51296,-0.439673 1.46558,-0.439673 1.0259,0 1.66099,0.561804 0.63508,0.561804 0.63508,1.587708 0,0.903772 -0.70836,2.125085 -0.70836,1.196887 -2.14951,2.320496 -1.41673,1.099182 -3.59067,1.83197 -2.14951,0.732788 -4.95853,0.732788 -6.424108,0 -9.990344,-3.66394 -3.566235,-3.663941 -3.566235,-9.941492 0,-2.955579 0.879346,-5.471485 0.879345,-2.540332 2.564758,-4.347876 1.685413,-1.807544 4.152466,-2.760168 2.467049,-0.9770513 5.471489,-0.9770513 3.9082,0 6.69279,1.6609863 2.80902,1.63656 4.20132,4.250171 1.3923,2.613611 1.3923,5.324927 0,2.515906 -1.44115,3.27312 -1.44115,0.732788 -4.05476,0.732788 z M 99.05184,21.373922 h 12.091 q -0.24426,-3.419678 -1.85639,-5.105091 -1.58771,-1.709839 -4.20132,-1.709839 -2.49148,0 -4.10361,1.734265 -1.587712,1.709839 -1.92968,5.080665 z m 30.77711,6.082141 v 5.569189 q 0,2.027381 -0.95263,3.053284 -0.95262,1.001477 -2.4182,1.001477 -1.44115,0 -2.36935,-1.025903 -0.9282,-1.025903 -0.9282,-3.028858 V 14.461287 q 0,-4.4944337 3.2487,-4.4944337 1.66098,0 2.39377,1.0503297 0.73279,1.05033 0.80607,3.102136 1.19689,-2.051806 2.44263,-3.102136 1.27016,-1.0503297 3.37082,-1.0503297 2.10066,0 4.07919,1.0503297 1.97853,1.05033 1.97853,2.784595 0,1.221313 -0.85492,2.02738 -0.8305,0.781641 -1.80755,0.781641 -0.36639,0 -1.78311,-0.439673 -1.3923,-0.464099 -2.46706,-0.464099 -1.46557,0 -2.39377,0.78164 -0.9282,0.757215 -1.44115,2.271644 -0.51295,1.514428 -0.70836,3.615088 -0.19541,2.076233 -0.19541,5.080664 z"
         id="text7"
         style="font-size:50.025px;font-family:'Arial Rounded MT Bold';-inkscape-font-specification:'Arial Rounded MT Bold, ';opacity:1;fill:#d4d4d8;fill-opacity:0.995851;stroke:#000000;stroke-width:0;stroke-dasharray:none;stroke-opacity:1"
         transform="scale(1.0489977,0.95329093)"
         aria-label="svger" /></g><path
       id="path6-4-9"
       style="opacity:1;fill:#d4d4d8;fill-opacity:1;stroke:#000000;stroke-width:0;stroke-dasharray:none;stroke-opacity:1"
       d="m 145.78302,10.530795 c -7.99111,0 -14.4692,6.478093 -14.4692,14.469206 0,7.991113 6.47809,14.469204 14.4692,14.469204 7.99112,0 19.99277,-14.469204 19.99277,-14.469204 0,0 -12.00165,-14.469206 -19.99277,-14.469206 z m 2.06334,4.161585 c 6.71841,0 16.80873,10.307621 16.80873,10.307621 0,0 -10.09032,10.307533 -16.80873,10.307533 -6.71841,0 -11.04913,-4.152736 -11.04913,-10.307533 0,-6.154801 4.33072,-10.307621 11.04913,-10.307621 z" /><path
       id="path6-0-0-9"
       style="fill:#d4d4d8;fill-opacity:1;stroke:#000000;stroke-width:0;stroke-dasharray:none;stroke-opacity:1"
       d="m 184.64795,10.530795 c -7.99112,0 -19.99286,14.469206 -19.99286,14.469206 0,0 12.00174,14.469204 19.99286,14.469204 7.99111,0 14.4692,-6.478091 14.4692,-14.469204 0,-7.991113 -6.47809,-14.469206 -14.4692,-14.469206 z m -2.08588,4.161585 c 6.71841,0 11.04922,4.15282 11.04922,10.307621 0,6.154797 -4.33081,10.307533 -11.04922,10.307533 -6.71841,0 -16.80864,-10.307533 -16.80864,-10.307533 0,0 10.09023,-10.307621 16.80864,-10.307621 z" /></g></svg>
