<?xml version="1.0" encoding="UTF-8" standalone="no"?>
<!-- Created with Inkscape (http://www.inkscape.org/) -->

<svg
   width="200mm"
   height="50mm"
   viewBox="0 0 200 50"
   version="1.1"
   id="svg1"
   xml:space="preserve"
   xmlns="http://www.w3.org/2000/svg"
   xmlns:svg="http://www.w3.org/2000/svg"><defs
     id="defs1"><linearGradient
       id="swatch8"><stop
         style="stop-color:#ffffff;stop-opacity:1;"
         offset="0"
         id="stop8" /></linearGradient></defs><g
     id="layer1"><g
       style="fill:currentColor;stroke:currentColor;stroke-width:0"
       id="g4"
       transform="matrix(3.5047171e21,0,0,3.5047171e21,-4.2056579e22,-4.2056632e22)"><path
         d="M 17,7 C 14.906,7 13.389,8.567 11.999,10.346 10.609,8.567 9.093,7 7,7 4.243,7 2,9.243 2,12 A 4.98,4.98 0 0 0 3.459,15.534 4.956,4.956 0 0 0 6.99,17 H 7.002 C 9.091,16.995 10.607,15.428 11.998,13.649 13.389,15.431 14.906,17 17,17 19.757,17 22,14.757 22,12 22,9.243 19.757,7 17,7 Z M 6.998,15 6.99,16 V 15 C 6.191,15 5.44,14.688 4.876,14.122 A 3.004,3.004 0 0 1 7,9 c 1.33,0 2.56,1.438 3.746,2.998 C 9.558,13.557 8.328,14.997 6.998,15 Z M 17,15 C 15.67,15 14.439,13.56 13.251,11.998 14.438,10.438 15.668,9 17,9 c 1.654,0 3,1.346 3,3 0,1.654 -1.346,3 -3,3 z"
         id="path1-2" /></g><g
       id="g2"
       transform="matrix(1.0782071,0,0,1.0782071,-3.566953,-28.910355)"><g
         id="g1"
         transform="matrix(0.3726069,0,0,0.3726069,112.86916,35.052613)"><path
           id="path6-4"
           style="fill:#d4d4d8;fill-opacity:1;fill-rule:nonzero;stroke:#000000;stroke-width:8.74364e-07;stroke-dasharray:none;stroke-opacity:1"
           d="M 48.240404,-1.939252e-7 C 26.085134,-1.939252e-7 8.1246939,17.960434 8.1246939,40.115704 c 0,22.155267 17.9604401,40.115698 40.1157101,40.115698 22.155266,0 55.429706,-40.115698 55.429706,-40.115698 0,0 -33.27444,-40.11570419392521 -55.429706,-40.11570419392521 z M 53.960985,11.537945 c 18.626697,0 46.602005,28.577759 46.602005,28.577759 0,0 -27.975308,28.57751 -46.602005,28.57751 -18.626712,0 -30.633581,-11.513412 -30.633581,-28.57751 0,-17.064113 12.006869,-28.577759 30.633581,-28.577759 z" /><path
           id="path6-0-0"
           style="fill:#d4d4d8;fill-opacity:1;fill-rule:nonzero;stroke:#000000;stroke-width:8.74364e-07;stroke-dasharray:none;stroke-opacity:1"
           d="M 155.99295,-1.939252e-7 C 133.83768,-1.939252e-7 100.56299,40.115704 100.56299,40.115704 c 0,0 33.27469,40.115698 55.42996,40.115698 22.15526,0 40.11569,-17.960431 40.11569,-40.115698 C 196.10864,17.960434 178.14821,-1.939252e-7 155.99295,-1.939252e-7 Z M 150.20987,11.537945 c 18.62672,0 30.63382,11.513646 30.63382,28.577759 0,17.064098 -12.0071,28.57751 -30.63382,28.57751 -18.6267,0 -46.60176,-28.57751 -46.60176,-28.57751 0,0 27.97506,-28.577759 46.60176,-28.577759 z" /></g><text
         xml:space="preserve"
         style="font-style:normal;font-variant:normal;font-weight:normal;font-stretch:normal;font-size:31.7791px;font-family:'MV Boli';-inkscape-font-specification:'MV Boli';opacity:1;fill:#d4d4d8;fill-opacity:0.995851;stroke:#000000;stroke-width:0;stroke-dasharray:none"
         x="3.5892181"
         y="61.06496"
         id="text7"
         transform="scale(0.98574901,1.014457)"><tspan
           id="tspan7"
           style="font-style:normal;font-variant:normal;font-weight:normal;font-stretch:normal;font-size:31.7791px;font-family:'MV Boli';-inkscape-font-specification:'MV Boli';fill:#d4d4d8;fill-opacity:0.995851;stroke-width:0;stroke-dasharray:none"
           x="3.5892181"
           y="61.06496">SVGER</tspan></text></g></g></svg>
